<svg xmlns="http://www.w3.org/2000/svg" xmlns:xlink="http://www.w3.org/1999/xlink" width="1024" zoomAndPan="magnify" viewBox="0 0 768 767.999994" height="1024" preserveAspectRatio="xMidYMid meet" version="1.0"><defs><g/><clipPath id="7c4f346e55"><path d="M 44.960938 43.949219 L 723.710938 43.949219 L 723.710938 722.699219 L 44.960938 722.699219 Z M 44.960938 43.949219 " clip-rule="nonzero"/></clipPath><clipPath id="ef6b53fd72"><path d="M 0.199219 0.160156 L 1.398438 0.160156 L 1.398438 1.839844 L 0.199219 1.839844 Z M 0.199219 0.160156 " clip-rule="nonzero"/></clipPath><clipPath id="5220e31062"><rect x="0" width="2" y="0" height="2"/></clipPath></defs><g clip-path="url(#7c4f346e55)"><path fill="#ffffff" d="M 384.5 43.949219 C 197.285156 43.949219 44.960938 196.277344 44.960938 383.46875 C 44.960938 570.703125 197.285156 723.027344 384.5 723.027344 C 571.714844 723.027344 724.039062 570.703125 724.039062 383.46875 C 724.039062 196.277344 571.714844 43.949219 384.5 43.949219 Z M 384.5 677.242188 C 222.515625 677.242188 90.746094 545.441406 90.746094 383.46875 C 90.746094 221.492188 222.515625 89.734375 384.5 89.734375 C 546.484375 89.734375 678.253906 221.492188 678.253906 383.46875 C 678.253906 545.441406 546.484375 677.242188 384.5 677.242188 Z M 384.5 677.242188 " fill-opacity="1" fill-rule="nonzero"/></g><path fill="#ffffff" d="M 392.613281 365.269531 C 339.113281 354.765625 313.921875 346.851562 313.921875 320.0625 C 313.921875 300.703125 322.304688 287.25 339.539062 278.890625 C 369.492188 264.402344 419.207031 270.039062 445.917969 291.050781 C 455.886719 298.921875 470.261719 297.179688 478.0625 287.203125 C 485.886719 277.28125 484.167969 262.886719 474.214844 255.105469 C 455.925781 240.726562 432.132812 231.566406 407.378906 227.503906 L 407.378906 186.835938 C 407.378906 174.183594 397.140625 163.945312 384.484375 163.945312 C 371.832031 163.945312 361.59375 174.183594 361.59375 186.835938 L 361.59375 226.183594 C 346.609375 227.898438 332.210938 231.566406 319.542969 237.714844 C 286.386719 253.808594 268.128906 283.046875 268.128906 320.0625 C 268.128906 387.4375 334.964844 400.585938 383.746094 410.191406 C 436.390625 420.523438 455.078125 427.628906 455.078125 446.855469 C 455.078125 465.679688 447.140625 478.953125 430.828125 487.359375 C 402.082031 502.289062 353.996094 497.863281 325.738281 477.835938 C 315.40625 470.59375 301.125 472.960938 293.835938 483.292969 C 286.523438 493.621094 288.9375 507.882812 299.269531 515.214844 C 316.820312 527.65625 338.8125 535.65625 361.59375 539.351562 L 361.59375 594.085938 C 361.59375 606.742188 371.832031 616.980469 384.484375 616.980469 C 397.140625 616.980469 407.378906 606.742188 407.378906 594.085938 L 407.378906 539.964844 C 423.34375 538.167969 438.78125 534.8125 451.863281 528.050781 C 483.449219 511.730469 500.863281 482.890625 500.863281 446.863281 C 500.878906 386.554688 440.855469 374.753906 392.613281 365.269531 Z M 392.613281 365.269531 " fill-opacity="1" fill-rule="nonzero"/><g transform="matrix(1, 0, 0, 1, 733, 722)"><g clip-path="url(#5220e31062)"><g clip-path="url(#ef6b53fd72)"><g fill="#ffffff" fill-opacity="1"><g transform="translate(0.431401, 1.372091)"><g><path d="M 0.171875 0 L 0.09375 0 L 0.09375 -0.765625 L 0.171875 -0.765625 Z M 0.171875 0 "/></g></g><g transform="translate(0.68433, 1.372091)"><g><path d="M 0.421875 0 L 0.40625 -0.078125 L 0.390625 -0.078125 C 0.367188 -0.046875 0.34375 -0.0195312 0.3125 0 C 0.289062 0.0078125 0.257812 0.015625 0.21875 0.015625 C 0.164062 0.015625 0.125 0 0.09375 -0.03125 C 0.0625 -0.0625 0.046875 -0.0976562 0.046875 -0.140625 C 0.046875 -0.253906 0.132812 -0.3125 0.3125 -0.3125 L 0.390625 -0.328125 L 0.390625 -0.359375 C 0.390625 -0.398438 0.378906 -0.429688 0.359375 -0.453125 C 0.347656 -0.472656 0.320312 -0.484375 0.28125 -0.484375 C 0.238281 -0.484375 0.1875 -0.46875 0.125 -0.4375 L 0.109375 -0.5 C 0.128906 -0.507812 0.15625 -0.519531 0.1875 -0.53125 C 0.21875 -0.539062 0.25 -0.546875 0.28125 -0.546875 C 0.351562 -0.546875 0.398438 -0.53125 0.421875 -0.5 C 0.453125 -0.46875 0.46875 -0.421875 0.46875 -0.359375 L 0.46875 0 Z M 0.234375 -0.0625 C 0.285156 -0.0625 0.320312 -0.0703125 0.34375 -0.09375 C 0.375 -0.125 0.390625 -0.164062 0.390625 -0.21875 L 0.390625 -0.265625 L 0.3125 -0.265625 C 0.25 -0.253906 0.203125 -0.238281 0.171875 -0.21875 C 0.140625 -0.207031 0.125 -0.179688 0.125 -0.140625 C 0.125 -0.117188 0.132812 -0.0976562 0.15625 -0.078125 C 0.175781 -0.0664062 0.203125 -0.0625 0.234375 -0.0625 Z M 0.234375 -0.0625 "/></g></g></g></g></g></g></svg>