<svg xmlns="http://www.w3.org/2000/svg" xmlns:xlink="http://www.w3.org/1999/xlink" width="1024" zoomAndPan="magnify" viewBox="0 0 768 767.999994" height="1024" preserveAspectRatio="xMidYMid meet" version="1.0"><defs><clipPath id="770f89210c"><path d="M 172 332 L 730.046875 332 L 730.046875 650 L 172 650 Z M 172 332 " clip-rule="nonzero"/></clipPath><clipPath id="268fd6b856"><path d="M 37.796875 118.289062 L 637 118.289062 L 637 592 L 37.796875 592 Z M 37.796875 118.289062 " clip-rule="nonzero"/></clipPath></defs><path fill="#ffffff" d="M 587.273438 645.105469 C 582.074219 645.105469 577.820312 640.851562 577.820312 635.652344 L 577.820312 342.398438 C 577.820312 337.199219 582.074219 332.941406 587.273438 332.941406 C 592.472656 332.941406 596.726562 337.199219 596.726562 342.398438 L 596.726562 635.652344 C 596.726562 640.851562 592.472656 645.105469 587.273438 645.105469 Z M 587.273438 645.105469 " fill-opacity="1" fill-rule="nonzero"/><path fill="#ffffff" d="M 501.867188 444.507812 L 288.976562 444.507812 C 283.777344 444.507812 279.523438 440.253906 279.523438 435.054688 C 279.523438 429.855469 283.777344 425.601562 288.976562 425.601562 L 501.867188 425.601562 C 507.066406 425.601562 511.320312 429.855469 511.320312 435.054688 C 511.320312 440.253906 507.066406 444.507812 501.867188 444.507812 Z M 501.867188 444.507812 " fill-opacity="1" fill-rule="nonzero"/><path fill="#ffffff" d="M 501.867188 500.605469 L 288.976562 500.605469 C 283.777344 500.605469 279.523438 496.351562 279.523438 491.152344 C 279.523438 485.953125 283.777344 481.699219 288.976562 481.699219 L 501.867188 481.699219 C 507.066406 481.699219 511.320312 485.953125 511.320312 491.152344 C 511.320312 496.351562 507.066406 500.605469 501.867188 500.605469 Z M 501.867188 500.605469 " fill-opacity="1" fill-rule="nonzero"/><path fill="#ffffff" d="M 433.476562 556.707031 L 288.976562 556.707031 C 283.777344 556.707031 279.523438 552.449219 279.523438 547.25 C 279.523438 542.050781 283.777344 537.796875 288.976562 537.796875 L 433.476562 537.796875 C 438.675781 537.796875 442.929688 542.050781 442.929688 547.25 C 442.929688 552.449219 438.675781 556.707031 433.476562 556.707031 Z M 433.476562 556.707031 " fill-opacity="1" fill-rule="nonzero"/><g clip-path="url(#770f89210c)"><path fill="#ffffff" d="M 693.953125 649.363281 L 208.609375 649.363281 C 188.597656 649.363281 172.367188 633.132812 172.367188 613.117188 L 172.367188 548.195312 C 172.367188 542.996094 176.621094 538.742188 181.824219 538.742188 C 207.980469 538.742188 229.410156 517.46875 229.410156 491.152344 C 229.410156 464.996094 208.136719 443.5625 181.824219 443.5625 C 176.621094 443.5625 172.367188 439.308594 172.367188 434.109375 L 172.367188 369.1875 C 172.367188 349.175781 188.597656 332.941406 208.609375 332.941406 L 693.953125 332.941406 C 713.96875 332.941406 730.199219 349.175781 730.199219 369.1875 L 730.199219 434.425781 C 730.199219 437.101562 729.09375 439.625 727.046875 441.515625 C 724.996094 443.25 722.476562 444.195312 719.796875 443.878906 C 718.0625 443.722656 716.332031 443.5625 714.753906 443.5625 C 688.597656 443.5625 667.164062 464.835938 667.164062 491.152344 C 667.164062 517.3125 688.4375 538.742188 714.753906 538.742188 C 716.332031 538.742188 718.0625 538.582031 719.796875 538.425781 C 722.476562 538.109375 725.15625 539.058594 727.046875 540.789062 C 729.09375 542.523438 730.199219 545.203125 730.199219 547.882812 L 730.199219 613.117188 C 730.199219 633.132812 713.808594 649.363281 693.953125 649.363281 Z M 191.277344 557.019531 L 191.277344 613.117188 C 191.277344 622.730469 199 630.453125 208.609375 630.453125 L 693.953125 630.453125 C 703.566406 630.453125 711.289062 622.730469 711.289062 613.117188 L 711.289062 557.492188 C 676.148438 555.761719 648.257812 526.609375 648.257812 491.152344 C 648.257812 455.699219 676.304688 426.546875 711.289062 424.8125 L 711.289062 369.1875 C 711.289062 359.574219 703.566406 351.851562 693.953125 351.851562 L 208.609375 351.851562 C 199 351.851562 191.277344 359.574219 191.277344 369.1875 L 191.277344 425.285156 C 223.421875 429.855469 248.320312 457.589844 248.320312 491.152344 C 248.320312 524.558594 223.582031 552.292969 191.277344 557.019531 Z M 191.277344 557.019531 " fill-opacity="1" fill-rule="nonzero"/></g><g clip-path="url(#268fd6b856)"><path fill="#ffffff" d="M 160.550781 591.214844 C 145.894531 591.214844 132.027344 582.234375 126.671875 567.894531 L 103.664062 507.226562 C 101.773438 502.339844 104.292969 496.824219 109.179688 495.09375 C 133.761719 485.796875 146.050781 458.21875 136.753906 433.792969 C 127.457031 409.210938 99.882812 396.921875 75.457031 406.21875 C 70.570312 408.109375 65.054688 405.585938 63.324219 400.703125 L 40.160156 339.875 C 33.066406 321.125 42.523438 300.167969 61.117188 293.234375 L 514.945312 121 C 523.925781 117.53125 533.855469 117.847656 542.679688 121.789062 C 551.503906 125.726562 558.277344 132.976562 561.746094 141.957031 L 584.910156 202.941406 C 585.855469 205.460938 585.699219 208.140625 584.4375 210.660156 C 583.175781 213.027344 581.128906 214.757812 578.449219 215.546875 C 576.875 216.019531 575.140625 216.492188 573.5625 217.121094 C 561.746094 221.535156 552.289062 230.515625 547.089844 242.019531 C 541.890625 253.523438 541.417969 266.445312 545.988281 278.421875 C 550.558594 290.238281 559.382812 299.695312 570.886719 304.894531 C 582.546875 310.09375 595.46875 310.566406 607.285156 305.996094 C 609.019531 305.367188 610.59375 304.738281 611.855469 303.949219 C 614.21875 302.6875 617.054688 302.53125 619.578125 303.632812 C 622.097656 304.578125 623.988281 306.628906 624.933594 309.148438 L 636.28125 339.089844 C 637.382812 341.925781 636.910156 345.234375 635.175781 347.753906 C 633.445312 350.277344 630.449219 351.851562 627.457031 351.851562 L 208.609375 351.851562 C 199 351.851562 191.277344 359.574219 191.277344 369.1875 L 191.277344 425.285156 C 223.421875 429.855469 248.320312 457.589844 248.320312 491.152344 C 248.320312 524.558594 223.421875 552.292969 191.277344 557.019531 L 191.277344 575.613281 C 191.277344 579.554688 188.914062 583.019531 185.132812 584.4375 L 173.3125 588.851562 C 169.214844 590.425781 164.804688 591.214844 160.550781 591.214844 Z M 124.464844 508.644531 L 144.320312 561.117188 C 147.628906 570.101562 157.714844 574.511719 166.695312 571.203125 L 172.367188 568.996094 L 172.367188 548.039062 C 172.367188 542.839844 176.621094 538.582031 181.824219 538.582031 C 207.980469 538.582031 229.410156 517.3125 229.410156 490.996094 C 229.410156 464.835938 208.136719 443.40625 181.824219 443.40625 C 176.621094 443.40625 172.367188 439.152344 172.367188 433.953125 L 172.367188 369.027344 C 172.367188 349.015625 188.597656 332.785156 208.609375 332.785156 L 613.90625 332.785156 L 610.910156 324.75 C 595.152344 329.792969 578.449219 328.847656 563.320312 322.070312 C 547.089844 314.820312 534.800781 301.585938 528.496094 285.039062 C 522.191406 268.492188 522.667969 250.371094 530.074219 234.140625 C 536.847656 219.011719 548.824219 207.195312 563.953125 200.578125 L 544.253906 148.574219 C 542.679688 144.320312 539.371094 140.855469 535.113281 138.964844 C 530.859375 137.074219 526.132812 136.914062 521.878906 138.492188 L 68.050781 310.566406 C 59.070312 313.875 54.65625 323.960938 57.964844 332.941406 L 77.820312 385.574219 C 109.492188 378.484375 142.585938 395.660156 154.402344 426.859375 C 166.378906 458.21875 152.984375 492.886719 124.464844 508.644531 Z M 124.464844 508.644531 " fill-opacity="1" fill-rule="nonzero"/></g><path fill="#ffffff" d="M 481.539062 343.1875 C 477.757812 343.1875 474.132812 340.820312 472.714844 337.039062 L 409.839844 171.109375 C 407.949219 166.226562 410.46875 160.710938 415.355469 158.976562 C 420.238281 157.085938 425.753906 159.605469 427.488281 164.492188 L 490.363281 330.421875 C 492.253906 335.308594 489.730469 340.820312 484.847656 342.554688 C 483.742188 342.871094 482.640625 343.1875 481.539062 343.1875 Z M 481.539062 343.1875 " fill-opacity="1" fill-rule="nonzero"/></svg>